Coordinates
version=1
nRows=29
nColumns=22
inDegrees=yes

Units are S.I. units (second, meters, Newtons, ...)
If the header above contains a line with 'inDegrees', this indicates whether rotational values are in degrees (yes) or radians (no).

endheader
time	pelvis_tilt	pelvis_list	pelvis_rotation	pelvis_tx	pelvis_ty	pelvis_tz	hip_flexion_r	hip_adduction_r	hip_rotation_r	knee_angle_r	ankle_angle_r	subtalar_angle_r	hip_flexion_l	hip_adduction_l	hip_rotation_l	knee_angle_l	ankle_angle_l	subtalar_angle_l	lumbar_extension	lumbar_bending	lumbar_rotation
      4.00000000	      5.43388174	     -2.18779491	    -30.62460551	      0.97538829	      0.90665959	      0.59701450	      7.81884263	     -2.05137743	      2.10110896	    -21.95081703	     14.72757816	     -1.43379452	      2.75567315	      1.55581145	     -7.28754848	    -19.64801777	     12.05029515	     -5.29364142	     -9.66276437	     -1.98936469	      1.79927316
      4.01000000	      5.46267929	     -2.12399039	    -30.58589418	      0.97881555	      0.90648708	      0.60025417	      7.73913098	     -1.96333349	      2.48212387	    -22.08429379	     14.16593725	     -1.59432051	      2.36475920	      1.53618588	     -7.32152761	    -19.52507718	     12.28437905	     -5.04228328	     -9.45318847	     -2.11362892	      1.92605901
      4.02000000	      5.51210988	     -2.05501180	    -30.55240061	      0.98227245	      0.90632917	      0.60356511	      7.60534709	     -1.91724108	      2.69499030	    -22.26402439	     13.71148803	     -1.83143000	      1.94206218	      1.53218750	     -7.35712725	    -19.38230924	     12.50861227	     -4.75304106	     -9.24158694	     -2.25418721	      2.06175775
      4.03000000	      5.56943217	     -1.98239270	    -30.52028164	      0.98576194	      0.90617406	      0.60694998	      7.42292095	     -1.90461021	      2.72260508	    -22.45686072	     13.40248315	     -2.06830935	      1.49723216	      1.53624837	     -7.38068325	    -19.21717748	     12.73296475	     -4.47878994	     -9.01652882	     -2.40220963	      2.18742623
      4.04000000	      5.63299919	     -1.93357800	    -30.48804445	      0.98928031	      0.90605412	      0.61040072	      7.15178842	     -1.89756959	      2.57115043	    -22.58702811	     13.26774230	     -2.33665062	      1.02370175	      1.51617337	     -7.42822257	    -19.04256125	     12.91021242	     -4.16494575	     -8.79473623	     -2.53149688	      2.35993860
      4.05000000	      5.68656797	     -1.89388551	    -30.45923217	      0.99278307	      0.90593690	      0.61389972	      6.81709648	     -1.88723688	      2.33525070	    -22.63897515	     13.28492130	     -2.55807678	      0.54303388	      1.48267128	     -7.46286414	    -18.84857390	     13.10656769	     -3.89864464	     -8.55920573	     -2.64515237	      2.51906352
      4.06000000	      5.73908381	     -1.88181386	    -30.42571767	      0.99627003	      0.90586701	      0.61743374	      6.37983044	     -1.86021681	      2.01885972	    -22.56046071	     13.42472057	     -2.78849295	      0.03935211	      1.42105176	     -7.49594631	    -18.63711951	     13.28723198	     -3.62930244	     -8.33310881	     -2.73157283	      2.67633461
      4.07000000	      5.77997966	     -1.89457990	    -30.38774762	      0.99972803	      0.90582672	      0.62098298	      5.85770128	     -1.81170824	      1.64334790	    -22.34816674	     13.64592370	     -3.02819583	     -0.47153035	      1.32842710	     -7.52963467	    -18.41452523	     13.47194327	     -3.36149603	     -8.10756122	     -2.78638554	      2.82775470
      4.08000000	      5.79537422	     -1.91289350	    -30.33383271	      1.00313388	      0.90577406	      0.62450273	      5.27148528	     -1.74828655	      1.24500203	    -21.98563786	     13.94634505	     -3.21545614	     -0.93439274	      1.21151299	     -7.56744138	    -18.23247007	     13.69926792	     -3.14088163	     -7.86444653	     -2.82167942	      2.96375091
      4.09000000	      5.80725387	     -1.99715310	    -30.27770423	      1.00649929	      0.90582307	      0.62802888	      4.57462701	     -1.62179688	      0.82566073	    -21.47840577	     14.21675813	     -3.45202070	     -1.45395714	      1.03542288	     -7.57685333	    -17.99788748	     13.83506883	     -2.87449930	     -7.65932713	     -2.78642028	      3.10108717
      4.10000000	      5.78387068	     -2.07620275	    -30.20709225	      1.00978242	      0.90583724	      0.63150234	      3.85520330	     -1.47903877	      0.42566856	    -20.85225546	     14.49816190	     -3.62421731	     -1.89752388	      0.83914056	     -7.59092378	    -17.82114019	     14.00444466	     -2.64110451	     -7.42685673	     -2.73982211	      3.22067380
      4.11000000	      5.73098670	     -2.16860154	    -30.12539732	      1.01298447	      0.90584328	      0.63492071	      3.11592944	     -1.30435861	      0.04637403	    -20.13740617	     14.76533396	     -3.73456687	     -2.29173165	      0.61190983	     -7.59793320	    -17.67931532	     14.17305771	     -2.43202647	     -7.18313641	     -2.66230190	      3.32598183
      4.12000000	      5.65291717	     -2.26944956	    -30.04735684	      1.01606154	      0.90583686	      0.63829472	      2.38043626	     -1.10373245	     -0.30378170	    -19.36853479	     14.99352767	     -3.79143502	     -2.63488230	      0.36105652	     -7.59923527	    -17.57874058	     14.33137888	     -2.23153113	     -6.93918416	     -2.56813158	      3.41857024
      4.13000000	      5.53460016	     -2.37121877	    -29.96617517	      1.01902157	      0.90578935	      0.64160448	      1.68636462	     -0.87679645	     -0.62458845	    -18.58284937	     15.17901342	     -3.79218467	     -2.90134503	      0.08234565	     -7.60595177	    -17.52973778	     14.49643233	     -2.05697685	     -6.67148457	     -2.45515135	      3.49607600
      4.14000000	      5.39248535	     -2.47310121	    -29.89596235	      1.02185321	      0.90572284	      0.64486419	      1.02674870	     -0.63304855	     -0.90793658	    -17.79261404	     15.33122068	     -3.74642685	     -3.11950199	     -0.20951779	     -7.61001922	    -17.50921563	     14.63820190	     -1.87360383	     -6.39868565	     -2.33379755	      3.56334465
      4.15000000	      5.19700561	     -2.56771192	    -29.82525972	      1.02450993	      0.90557984	      0.64803539	      0.45396044	     -0.36178955	     -1.15559695	    -17.03041196	     15.44816791	     -3.68012212	     -3.22067807	     -0.52989703	     -7.60959451	    -17.57837382	     14.78754520	     -1.75325477	     -6.09493023	     -2.20109575	      3.63468037
      4.16000000	      4.99142984	     -2.67069959	    -29.76923652	      1.02707362	      0.90544593	      0.65115765	     -0.09715550	     -0.07763117	     -1.39110828	    -16.27543045	     15.51295508	     -3.58642918	     -3.31498282	     -0.86047879	     -7.61582302	    -17.63534601	     14.93281526	     -1.60969906	     -5.80112702	     -2.05508352	      3.66127123
      4.17000000	      4.76840459	     -2.77212004	    -29.70984255	      1.02951401	      0.90529128	      0.65420065	     -0.61056278	      0.21893342	     -1.60011005	    -15.53675653	     15.54913715	     -3.47631612	     -3.36167604	     -1.20087931	     -7.61655178	    -17.72484829	     15.06799462	     -1.47046171	     -5.50894077	     -1.91121243	      3.68332753
      4.18000000	      4.53388266	     -2.87550415	    -29.65426367	      1.03182069	      0.90512300	      0.65716543	     -1.09533372	      0.52596350	     -1.78717460	    -14.80841661	     15.55219394	     -3.35403413	     -3.37646212	     -1.54907412	     -7.61497837	    -17.83151063	     15.20300172	     -1.33235237	     -5.23050817	     -1.76686903	      3.68253259
      4.19000000	      4.29156029	     -2.97564485	    -29.60102745	      1.03402152	      0.90493802	      0.66004848	     -1.56174323	      0.83671434	     -1.95783118	    -14.07648021	     15.53269238	     -3.22642282	     -3.36489058	     -1.89539573	     -7.61236436	    -17.95053230	     15.33706430	     -1.20114056	     -4.96336271	     -1.62732345	      3.67633589
      4.20000000	      4.05174004	     -3.07387361	    -29.54435581	      1.03611717	      0.90474241	      0.66284688	     -2.01611754	      1.14631455	     -2.10983640	    -13.35321147	     15.48816385	     -3.09379781	     -3.34038830	     -2.23665732	     -7.61148421	    -18.07441709	     15.47678619	     -1.07339372	     -4.71676696	     -1.49745871	      3.66268970
      4.21000000	      3.81517665	     -3.16713160	    -29.48794269	      1.03808040	      0.90452641	      0.66555017	     -2.45739619	      1.45224823	     -2.24229692	    -12.63123822	     15.43242255	     -2.96565819	     -3.30099020	     -2.56670589	     -7.60441061	    -18.20339667	     15.61783026	     -0.96199646	     -4.49983315	     -1.38194466	      3.65302672
      4.22000000	      3.59081220	     -3.25451557	    -29.43014003	      1.03993640	      0.90429345	      0.66815417	     -2.88703619	      1.74617741	     -2.35792905	    -11.92847487	     15.36751400	     -2.84202925	     -3.26144736	     -2.87898978	     -7.59511800	    -18.32794864	     15.76537669	     -0.86439062	     -4.31369375	     -1.28141547	      3.64556628
      4.23000000	      3.38270408	     -3.33427129	    -29.37171891	      1.04170479	      0.90404269	      0.67066490	     -3.30470740	      2.02409823	     -2.46389235	    -11.25297542	     15.29953385	     -2.72203052	     -3.23204319	     -3.16910909	     -7.58916073	    -18.43955493	     15.91895673	     -0.77775301	     -4.15750503	     -1.19892672	      3.64901956
      4.24000000	      3.19592891	     -3.40741072	    -29.31693215	      1.04337758	      0.90377855	      0.67308169	     -3.71069697	      2.28320155	     -2.56028986	    -10.61171799	     15.23208240	     -2.60036490	     -3.22412446	     -3.43600951	     -7.59776423	    -18.52672715	     16.07735794	     -0.69485339	     -4.03963996	     -1.13457925	      3.65843448
      4.25000000	      3.02044056	     -3.46806241	    -29.26686786	      1.04492887	      0.90347893	      0.67537430	     -4.08249082	      2.52261233	     -2.61951755	    -10.01995687	     15.18350870	     -2.52165345	     -3.20318944	     -3.67762244	     -7.58865524	    -18.62780467	     16.22450292	     -0.64807237	     -3.94742468	     -1.08643199	      3.69730543
      4.26000000	      2.86855344	     -3.52671122	    -29.22340277	      1.04641900	      0.90317659	      0.67758281	     -4.44428358	      2.74471681	     -2.67602595	     -9.47148166	     15.13224185	     -2.45670112	     -3.21698172	     -3.90168106	     -7.61248961	    -18.69449235	     16.38281408	     -0.60035160	     -3.88762776	     -1.04933363	      3.74206460
      4.27000000	      2.73088359	     -3.57475305	    -29.19114705	      1.04782010	      0.90285284	      0.67968742	     -4.78136133	      2.94557647	     -2.70980924	     -8.96538226	     15.09953809	     -2.41486361	     -3.23505161	     -4.10308644	     -7.64225109	    -18.75627585	     16.53324820	     -0.55827733	     -3.85232849	     -1.02526400	      3.80370322
      4.28000000	      2.61025940	     -3.61911344	    -29.16919156	      1.04915584	      0.90252466	      0.68170149	     -5.10146141	      3.12976508	     -2.73131218	     -8.50178909	     15.07158320	     -2.39242453	     -3.27151188	     -4.28891618	     -7.68996886	    -18.80175975	     16.68202180	     -0.51099202	     -3.84140629	     -1.00804408	      3.87636740
